HIERARCHY
ROOT Spine
{
    OFFSET 0.0 0.0 -0.0
    CHANNELS 6 Xposition Yposition Zposition Zrotation Xrotation Yrotation
    JOINT ShoulderCenter
    {
        OFFSET 0.0 23.06056785583496 0.0
        CHANNELS 3 Zrotation Xrotation Yrotation
        JOINT LeftShoulder
        {
            OFFSET 16.252056121826172 0.0 0.0
            CHANNELS 3 Zrotation Xrotation Yrotation
            JOINT LeftElbow
            {
                OFFSET 22.971538543701172 0.0 0.0
                CHANNELS 3 Zrotation Xrotation Yrotation
                JOINT LeftHand
                {
                    OFFSET 24.61423110961914 0.0 0.0
                    CHANNELS 3 Zrotation Xrotation Yrotation
                    End Site
                    {
                        OFFSET 9.845693588256836 0.0 0.0
                    }
                }
            }
        }
        JOINT RightShoulder
        {
            OFFSET -16.252056121826172 0.0 0.0
            CHANNELS 3 Zrotation Xrotation Yrotation
            JOINT RightElbow
            {
                OFFSET -22.971538543701172 0.0 0.0
                CHANNELS 3 Zrotation Xrotation Yrotation
                JOINT RightHand
                {
                    OFFSET -24.61423110961914 0.0 0.0
                    CHANNELS 3 Zrotation Xrotation Yrotation
                    End Site
                    {
                        OFFSET -9.845693588256836 0.0 0.0
                    }
                }
            }
        }
        End Site
        {
            OFFSET 0.0 9.224227905273438 0.0
        }
    }
    JOINT LeftHip
    {
        OFFSET 22.69262390458727 -22.69262390458727 0.0
        CHANNELS 3 Zrotation Xrotation Yrotation
        JOINT LeftKnee
        {
            OFFSET 0.0 -30.272043228149414 0.0
            CHANNELS 3 Zrotation Xrotation Yrotation
            JOINT LeftFoot
            {
                OFFSET 0.0 -38.77778625488281 0.0
                CHANNELS 3 Zrotation Xrotation Yrotation
                End Site
                {
                    OFFSET 0.0 0.0 15.511114120483398
                }
            }
        }
    }
    JOINT RightHip
    {
        OFFSET -22.69262390458727 -22.69262390458727 0.0
        CHANNELS 3 Zrotation Xrotation Yrotation
        JOINT RightKnee
        {
            OFFSET 0.0 -30.272043228149414 0.0
            CHANNELS 3 Zrotation Xrotation Yrotation
            JOINT RightFoot
            {
                OFFSET 0.0 -38.77778625488281 0.0
                CHANNELS 3 Zrotation Xrotation Yrotation
                End Site
                {
                    OFFSET 0.0 0.0 15.511114120483398
                }
            }
        }
    }
}
MOTION
Frames: 13
Frame Time: 0.03333333333333333
-0.17999999225139618 17.81399917602539 -261.33001708984375 -0.08346722962923579 2.645765893363824 -0.05318971528868334 -6.525184089603536e-09 1.4036913488894405e-07 -179.6847451138184 -71.54592218645915 -56.21640695159187 10.578854512275768 3.472303005108207e-07 -1.1660849270851025e-06 17.88677199835442 -3.1805546814635168e-15 8.827812596100317e-32 -3.1805546814635168e-15 75.08833522074212 19.547874857664542 -3.5347899679132366 1.3248626166216e-06 -6.910414212805397e-07 -73.04246052881747 -3.1805546814635168e-15 -2.648343778830095e-31 9.54166404439055e-15 2.604881718748175 10.380120454958643 -60.54686824687751 20.38902469968279 -10.576652399433108 84.0648033091136 -1.9878466759146977e-16 1.5654292572828246e-15 -1.8263341334966286e-15 -2.8014124879356723 10.098361419719094 60.360814545390284 -21.37833605986913 -11.884355336517052 -90.78066374224537 1.4908850069360232e-16 -1.5902773407317582e-15 -3.6029721000953897e-16
-0.18039999902248383 17.8164005279541 -261.33111572265625 -0.24432913500476414 2.684454101392972 0.08142190303941349 -8.011988529396208e-09 -1.1863780708499026e-07 -179.48505731044276 -71.50932319189883 -56.59660884810128 10.352606408326507 1.8550423608721193e-06 1.6263188988591095e-06 17.612867600578124 0.0 0.0 0.0 73.73962775534024 23.320842446530868 -11.310516203124967 -2.4772408396808576e-06 1.2818470386094532e-06 -84.55499026292661 0.0 0.0 3.180554681463516e-15 2.8535788687595676 10.240647415052159 -61.107524418115865 20.454402453126846 -10.326134477337641 85.90996874744097 1.987846675914698e-16 -1.0129570117595579e-33 -5.839299610499425e-16 -2.593867227805194 9.97750940482019 59.47535692173921 -21.015464781866363 -12.166593125072968 -88.96584749526605 9.939233379573487e-17 -6.21202086223343e-18 -2.3916280319598704e-16
-0.1873999983072281 17.816499710083008 -261.3450927734375 -0.308426670943474 2.7064827661190605 0.012839873428295807 -3.219998005828449e-11 5.3368225487781255e-08 -179.00185634094288 -70.66234958072106 -57.78584655638012 10.544231551376921 -7.500991948265529e-07 -5.194353002478668e-06 17.320816817582003 0.0 0.0 3.1805546814635164e-15 72.72682660159835 26.598115949403798 -14.734695807368452 4.176464969610848e-06 -4.36476180977236e-06 -99.91619788153585 -6.3611093629270335e-15 -3.531125038440127e-31 6.3611093629270335e-15 2.9824580726553878 10.165791922643123 -61.37285404942456 20.248257569729816 -10.103268636437132 85.81561925810534 1.987846675914698e-16 -5.0001282282599455e-33 -2.882377680076312e-15 -2.482854131920197 9.8686475758496 58.72420009523217 -20.874905235264773 -12.548004924756569 -88.5355107662161 -4.969616689786745e-16 2.6132135675711997e-33 -6.025660236366428e-16
-0.18700000643730164 17.819700241088867 -261.3462829589844 -0.42922284201342853 2.7375255671430896 0.11861618037211452 4.0109922588647434e-08 -1.2063816931136325e-07 -178.7718755818781 -70.5955821027089 -57.30253415812226 10.387375857143944 1.042014032079657e-06 3.2550033259601346e-06 17.381316057960092 0.0 0.0 -6.3611093629270335e-15 68.18277830958401 28.82166618962531 -17.34083167881066 -6.4030787083894785e-06 7.728139090666077e-07 -111.53482046775635 0.0 0.0 1.5902773407317584e-15 3.129159174526004 10.05836677846161 -61.58457878810038 20.175037888389333 -9.910324308283657 86.24284577182902 -6.207055731633036e-33 -1.5902773407317584e-15 -4.472655020808071e-16 -2.235697372208533 9.825310398220552 58.08109977768803 -20.778345706428873 -12.601962714780267 -87.66756114320044 4.472655020808071e-16 -1.5902773407317584e-15 1.0311954631307496e-15
-0.1858000010251999 17.824199676513672 -261.36529541015625 -0.6595076368075832 2.6957542143826743 0.07751960134281115 7.930815452981575e-10 -5.661245765216305e-08 -178.526500175653 -70.93364404195113 -57.586019059135346 10.029788227494706 -6.118212398175285e-06 9.884545828340434e-06 17.31996670419982 0.0 0.0 0.0 64.53592922465812 32.026096707079226 -25.633236433247923 2.270753079819268e-06 -8.586988111042406e-06 -116.90327134163665 0.0 0.0 7.951386703658792e-16 3.3887422298513292 10.0193021328236 -61.954597331336494 20.19771950868532 -9.628236810738874 87.47916493771064 3.9756933518293955e-16 -4.482873583957193e-33 -1.2921003393445536e-15 -2.3147408023692586 9.946822358614483 58.343785745563395 -20.9444323433095 -13.393443194738623 -88.6002796432022 3.975693351829397e-16 -1.6151254241806925e-15 1.8636062586700297e-16
-0.1850000023841858 17.824298858642578 -261.3651123046875 -0.961531068546075 2.7548930375615623 0.07727209587837643 1.326433350020849e-07 1.7382495569813446e-07 -178.29782061674914 -71.1165437024192 -58.602328079655074 9.809639546203185 2.5879374321575143e-06 -2.3303581626161506e-06 16.720985704746386 -1.7655625192200634e-31 6.3611093629270335e-15 3.1805546814635168e-15 62.95804017186379 35.36548601107509 -36.668935273681996 -2.4716339591119128e-06 1.6643000220617061e-06 -121.80926185784276 -6.3611093629270335e-15 -3.1805546814635168e-15 -1.7655625192200634e-31 3.7001040768191427 9.816660062218421 -62.2606579427013 20.11303418201244 -9.24412944122888 88.22969100022556 1.987846675914698e-16 1.3362411644487784e-33 7.702905869169454e-16 -1.6691591764252418 9.86230331701948 56.87073745822902 -20.714940470223667 -13.52980226694939 -86.35167197568711 -2.981770013872047e-16 1.066837703874428e-33 -4.0999337690740647e-16
-0.1614999920129776 17.829700469970703 -261.3653869628906 -1.384151124135377 2.8906260476137615 0.1621764522147892 -7.007562060652158e-08 3.510550584307358e-07 -178.07057598160557 -72.04293179869602 -57.06711942110369 8.90116736455025 -1.3167353252180216e-06 9.933883262074477e-06 16.699256565476585 6.3611093629270335e-15 -3.1805546814635168e-15 -3.1805546814635168e-15 64.18238908577048 38.005950231258645 -53.18716147592273 4.192485395746431e-07 1.6514984113735676e-06 -124.70592842757323 -6.3611093629270335e-15 -5.29668755766019e-31 9.54166404439055e-15 4.170108077439583 9.568592494199377 -62.5548883315084 20.043648905075692 -9.075231758822538 89.16039607350247 -5.963540027744094e-16 4.969616689786745e-17 -7.951386703658792e-16 -1.1201030421737848 9.703031886138726 56.21561390161439 -20.61216702143843 -13.549880476080354 -85.63229340858327 0.0 0.0 1.5654292572828246e-15
-0.10460000485181808 17.843399047851562 -261.3560791015625 -1.8376908357524944 2.920806455325477 0.22407322277360953 9.983267521489529e-08 -8.895186605299303e-08 -177.90580703794643 -73.12984563932294 -55.08517772809782 7.754151075204689 5.078031559454948e-06 -7.340023651881569e-07 16.650096738519057 -3.531125038440127e-31 6.361109362927035e-15 6.361109362927035e-15 63.01333874839749 41.990121157945794 -65.79798016433892 -4.604132522841852e-07 1.4454377977021346e-07 -128.02760085630928 0.0 -7.951386703658791e-16 0.0 4.401530988081381 9.610309154244279 -62.47435845603853 20.137313681903297 -8.693275802381944 88.96132899890897 1.9878466759146977e-16 4.9696166897867443e-17 -1.515733090384957e-15 -0.5627493094176352 9.719399620560178 55.63975635006933 -20.60682282196513 -13.686737896071762 -84.75933365081251 -2.981770013872048e-16 -1.5902773407317588e-15 7.827146286414125e-16
-0.005799999926239252 17.92889976501465 -261.3343811035156 -2.199277574322119 2.9987392405805036 0.09662752324199146 -2.311488332063929e-08 1.299972945585686e-07 -178.06660118489467 -72.99108865053843 -56.45693781213539 8.107669134851612 4.215997588021154e-06 -1.2426515008286975e-06 16.382873996713613 -7.95138670365879e-15 3.1805546814635164e-15 2.2069531490250793e-31 66.35360459126288 42.52310026486947 -73.20001199866162 -2.1638377253861166e-07 2.898899267086284e-06 -135.1979747569483 6.3611093629270335e-15 0.0 0.0 4.776641620447196 9.541120143141402 -63.01980219412499 20.06483761050343 -8.361804907044615 89.1634156827215 -3.975693351829397e-16 4.969616689786746e-17 8.199867538148131e-16 -0.0898067627630224 9.601201158096321 54.80336404151706 -20.426292617069524 -13.845756974201066 -83.53601611355485 -9.939233379573495e-17 1.6151254241806917e-15 3.4787316828507206e-15
0.15839999914169312 18.101200103759766 -261.345703125 -2.9425412010325345 2.9048345930434714 -0.0937044008011595 -7.2100868965901e-08 -6.551070107503845e-08 -177.76394617276267 -74.39282341199049 -55.50912267355891 6.252151408250896 -2.967498147674347e-06 2.425024290442254e-06 16.31317927004639 1.5902773407317584e-15 3.1805546814635164e-15 -9.541664044390549e-15 60.967824275474975 39.892757498355614 -80.11912101690736 -1.2658577557641408e-06 -1.648029506668884e-07 -135.0385036991369 -6.3611093629270335e-15 -6.3611093629270335e-15 -3.531125038440127e-31 5.7521603843322024 9.48165697300256 -64.68544995671053 19.796437853060798 -7.83529680816424 89.8099250672629 -7.951386703658792e-16 -1.5405811738338909e-15 1.0187714214062827e-15 0.8909916427426545 9.61152985736039 53.21211845344189 -20.097093457793644 -14.212987692191989 -80.7791611742259 -2.484808344893372e-16 -9.954457868222251e-33 4.590683417190505e-15
0.2533000111579895 18.197900772094727 -261.2651062011719 -3.2458375045797454 3.1049867316529376 -0.41838178470520687 -3.687596538274056e-07 4.546606936059092e-09 -179.01171105913068 -73.54087177078911 -59.086401212569925 7.36351925945037 -1.6865097133166646e-06 3.61525252992495e-07 14.843262157374523 -6.361109362927032e-15 -3.531125038440127e-31 6.361109362927032e-15 55.236057425268456 40.86566425510956 -81.95908265776133 -1.2572046158647047e-06 1.6615035759816329e-06 -136.5348975779909 0.0 0.0 3.1805546814635164e-15 5.948091986769603 9.440003529473973 -65.02458054201394 20.056017650365952 -7.466904142784949 91.70706880495244 0.0 0.0 -3.6278201835443235e-15 1.297619565723678 9.282292406327116 52.09725607993738 -19.543140180154683 -14.384641912995763 -78.55842402162594 -4.969616689786745e-17 -7.273893435507463e-35 1.6772456328030264e-16
0.4714999794960022 18.304399490356445 -261.1510925292969 -4.04544914602478 3.3456652588582694 -0.8978758948093576 2.60618410026097e-07 7.248668066290508e-08 -178.5627282999428 -74.55448919124629 -59.771371189358455 6.3694791279809655 -4.507383782664955e-07 1.046146613106643e-06 15.247188948166558 -3.1805546814635168e-15 -3.1805546814635168e-15 3.1805546814635168e-15 51.03099682229243 40.867121248623214 -85.6253133993822 -3.4147148134223407e-06 -2.7763036260425285e-06 -135.79861563372634 -6.3611093629270335e-15 6.3611093629270335e-15 3.531125038440127e-31 6.6833066017143645 9.435776509733452 -66.04128071126856 20.313196479625212 -6.937418574766681 94.04975446840598 -1.2500320570649864e-33 -4.969616689786745e-17 -2.882377680076312e-15 2.1428509768874173 9.014654799443376 50.89469713661072 -19.172352031025827 -14.856171870439136 -76.8829292256856 -1.4908850069360235e-16 1.616420763446103e-33 -1.2424041724466863e-15
0.5719999670982361 18.34709930419922 -261.1138000488281 -4.296608784724858 3.451680576777318 -1.083480440767603 9.031112003200235e-08 8.983774152912927e-08 -178.49437528186826 -74.6623487088041 -61.63696807484058 5.277161196521771 3.8090782381221334e-06 -6.775830671298701e-06 15.124326709974861 -6.3611093629270335e-15 0.0 0.0 44.419103240748846 40.69071711664139 -86.70264385385077 -4.414690341230563e-06 3.764948091234775e-06 -130.77833467181233 6.361109362927033e-15 0.0 0.0 6.958615954702001 9.385925102891262 -66.58225840637182 20.425850119918234 -6.75546371099643 96.0817375295224 1.4138293610941915e-32 -1.5902773407317582e-15 1.0187714214062825e-15 2.659271590104823 8.815765900799436 49.47391288681064 -18.85953769108767 -14.993279731769968 -74.97055761312411 2.981770013872047e-16 6.376779911794876e-33 2.4506422301510885e-15
